<svg width="436" height="647" viewBox="0 0 436 647" fill="none" xmlns="http://www.w3.org/2000/svg">
<path d="M166.993 0C166.993 0 191.689 83.6556 144.272 132.36C96.8549 181.064 101.981 234.895 121.204 260.529C140.428 286.163 139.145 305.388 123.766 319.487C108.388 333.586 95.5724 343.839 86.602 320.768C77.6315 297.698 67.3796 297.698 63.5341 286.163C59.6886 274.628 51.9997 254.121 51.9997 254.121C51.9997 254.121 27.6502 292.572 12.2713 315.643C-3.10765 338.713 -3.10664 374.601 7.14532 393.826C17.3973 413.051 13.5528 436.121 5.86384 468.163C-1.82512 500.205 8.42684 548.909 44.3097 568.135C80.1925 587.361 123.766 602.74 142.989 620.684C162.211 638.628 207.067 655.29 264.736 642.473C322.405 629.657 395.454 570.699 408.269 530.967C408.269 530.967 441.589 493.798 435.182 445.094C428.774 396.389 405.705 397.67 395.453 360.501C385.201 323.333 417.638 332.497 390.327 268.682C390.327 268.682 378.154 238.308 331.902 216.426C302.184 202.367 322.406 138.768 269.863 74.6841C217.319 10.6 166.993 0 166.993 0Z" fill="#CD5029"/>
<path d="M148.432 317.751L150.68 370.754C150.68 370.754 110.592 400.312 105.16 438.735L89.1649 439.966C89.1649 439.966 77.6305 442.529 77.6305 454.065C77.6305 465.601 77.6305 491.235 77.6305 491.235C77.6305 491.235 81.475 502.769 90.4454 502.769L106.926 502.45C106.926 502.45 114.923 532.942 143.412 552.936V578.429C143.412 578.429 141.412 586.927 158.905 589.426C176.399 591.925 199.639 591.676 203.388 587.927C207.136 584.178 207.136 583.428 207.136 578.929C207.136 578.929 228.378 583.928 267.363 578.929V583.928C267.363 583.928 270.861 590.926 296.351 590.926C321.841 590.926 329.338 587.927 333.836 578.929V553.936C333.836 553.936 370.831 517.682 369.572 462.212C368.49 414.475 353.678 397.931 333.781 379.275C311.12 358.027 263.864 348.119 215.883 353.929C215.883 353.929 191.552 310.003 148.432 317.751Z" fill="white"/>
<path d="M143.413 462.961C148.657 462.961 152.909 458.708 152.909 453.463C152.909 448.218 148.657 443.966 143.413 443.966C138.168 443.966 133.916 448.218 133.916 453.463C133.916 458.708 138.168 462.961 143.413 462.961Z" fill="#CD5029"/>
<path d="M367.936 429.586C367.936 429.586 349.725 420.846 327.29 433.581C327.29 433.581 300.59 424.596 286.316 436.173C271.494 448.195 270.024 462.281 270.797 478.946C270.797 478.946 283.629 435.043 316.032 446.384C316.032 446.384 293.094 486.803 328.788 493.879C328.788 493.879 337.22 493.829 344.182 489.624C350.824 485.614 356.02 478.194 353.89 464.817C353.89 464.817 349.543 451.485 338.327 443.403C338.327 443.403 349.364 435.599 370.302 441.195L367.936 429.586Z" fill="#CD5029"/>
<path d="M328.061 452.087C328.061 452.087 311.378 483.539 333.666 481.845C333.666 481.845 345.499 476.191 338.551 464.723C331.407 452.93 328.061 452.087 328.061 452.087Z" fill="white"/>
</svg>
