<svg width="176" height="170" viewBox="0 0 176 170" fill="none" xmlns="http://www.w3.org/2000/svg">
<path d="M160.603 37.8089C159.597 34.5911 157.182 31.9767 154.163 30.3678L92.7774 1.00556C91.1673 0.201111 89.3559 0 87.7458 0C86.1357 0 84.3244 0 82.7142 0.402223L21.3288 29.9656C18.3098 31.3734 16.0959 33.9878 15.2909 37.4067L0.196103 103.572C-0.407688 106.991 0.397367 110.41 2.41 113.226L44.8767 165.716C47.2918 168.129 50.7133 169.738 54.1348 169.939H121.759C125.382 170.341 128.804 168.732 131.018 165.716L173.484 113.226C175.497 110.41 176.302 106.991 175.899 103.572L160.603 37.8089Z" fill="#326DE6"/>
<path d="M151.144 100.958C150.943 100.958 150.741 100.958 150.741 100.757C150.741 100.556 150.339 100.556 149.936 100.556C149.131 100.355 148.326 100.355 147.521 100.355C147.119 100.355 146.716 100.355 146.314 100.153H146.112C143.898 99.9523 141.483 99.5501 139.269 98.9467C138.666 98.7456 138.062 98.1423 137.861 97.539L136.25 97.1367C137.056 91.3045 136.653 85.2712 135.445 79.4389C134.037 73.6067 131.621 67.9756 128.401 62.9478L129.609 61.7411V61.54C129.609 60.9367 129.81 60.1323 130.213 59.73C132.024 58.1211 133.835 56.9145 135.848 55.7078C136.25 55.5067 136.653 55.3056 137.056 55.1045C137.861 54.7022 138.464 54.3 139.269 53.8978C139.471 53.6967 139.672 53.6967 139.873 53.4956C140.074 53.2945 139.873 53.2945 139.873 53.0934C141.685 51.6856 142.087 49.2722 140.678 47.4622C140.074 46.6578 138.867 46.0545 137.861 46.0545C136.854 46.0545 135.848 46.4567 135.043 47.06L134.842 47.2611C134.64 47.4622 134.439 47.6634 134.238 47.6634C133.634 48.2667 133.03 48.87 132.628 49.4734C132.426 49.8756 132.024 50.0767 131.823 50.2778C130.414 51.8867 128.602 53.4956 126.791 54.7022C126.389 54.9034 125.986 55.1045 125.583 55.1045C125.382 55.1045 124.98 55.1045 124.778 54.9034H124.577L122.967 55.9089C121.357 54.3 119.546 52.6911 117.935 51.0822C110.489 45.25 101.231 41.63 91.7712 40.6245L91.5699 39.0156V39.2167C90.9661 38.8145 90.7649 38.2111 90.5636 37.6078C90.5636 35.3956 90.5636 33.1833 90.9661 30.77V30.5689C90.9661 30.1667 91.1674 29.7644 91.1674 29.3622C91.3687 28.5578 91.3687 27.7533 91.5699 26.9489V25.7422C91.7712 23.7311 90.1611 21.72 88.1484 21.5189C86.9409 21.3178 85.7333 21.9211 84.727 22.9267C83.9219 23.7311 83.5194 24.7367 83.5194 25.7422V26.7478C83.5194 27.5522 83.7206 28.3567 83.9219 29.1611C84.1232 29.5633 84.1232 29.9656 84.1232 30.3678V30.5689C84.5257 32.7811 84.5257 34.9933 84.5257 37.4067C84.3244 38.01 84.1232 38.6133 83.5194 39.0156V39.4178L83.3181 41.0267C81.1042 41.2278 78.8903 41.63 76.4751 42.0322C67.0158 44.0433 58.3614 49.0711 51.7197 56.11L50.5121 55.3056H50.3109C50.1096 55.3056 49.9083 55.5067 49.5058 55.5067C49.1033 55.5067 48.7008 55.3056 48.2982 55.1045C46.4869 53.6967 44.6755 52.0878 43.2666 50.4789C43.0654 50.0767 42.6628 49.8756 42.4616 49.6745C41.8578 49.0711 41.4553 48.4678 40.8515 47.8645C40.6502 47.6634 40.4489 47.6634 40.2477 47.4622C40.0464 47.2611 40.0464 47.2611 40.0464 47.2611C39.2414 46.6578 38.235 46.2556 37.2287 46.2556C36.0211 46.2556 35.0148 46.6578 34.411 47.6634C33.2034 49.4734 33.606 51.8867 35.2161 53.2945C35.4173 53.2945 35.4173 53.4956 35.4173 53.4956C35.4173 53.4956 35.8199 53.8978 36.0211 53.8978C36.6249 54.3 37.43 54.7022 38.235 55.1045C38.6376 55.3056 39.0401 55.5067 39.4426 55.7078C41.4553 56.9145 43.4679 58.1211 45.078 59.73C45.4805 60.1323 45.8831 60.9367 45.6818 61.54V61.3389L46.8894 62.5456C46.6881 62.9478 46.4869 63.1489 46.2856 63.5511C40.0464 73.4056 37.43 85.0701 39.2414 96.5334L37.6312 96.9356C37.6312 97.1367 37.43 97.1367 37.43 97.1367C37.2287 97.7401 36.6249 98.1423 36.0211 98.5445C33.8072 99.1478 31.5933 99.5501 29.1782 99.7512C28.7756 99.7512 28.3731 99.7512 27.9706 99.9523C27.1655 99.9523 26.3605 100.153 25.5554 100.153C25.3542 100.153 25.1529 100.355 24.7504 100.355C24.5491 100.355 24.5491 100.355 24.3478 100.556C22.1339 100.958 20.7251 102.969 21.1276 105.181C21.5301 106.991 23.3415 108.198 25.1529 107.997C25.5554 107.997 25.7567 107.997 26.1592 107.796C26.3605 107.796 26.3605 107.796 26.3605 107.595C26.3605 107.393 26.9643 107.595 27.1655 107.595C27.9706 107.393 28.7756 106.991 29.3794 106.79C29.782 106.589 30.1845 106.388 30.587 106.388H30.7883C33.0022 105.583 35.0148 104.98 37.43 104.578H37.6312C38.235 104.578 38.8388 104.779 39.2414 105.181C39.4426 105.181 39.4426 105.382 39.4426 105.382L41.254 105.181C44.2729 114.432 49.9083 122.678 57.7576 128.711C59.569 130.119 61.1791 131.326 63.1917 132.331L62.1854 133.739C62.1854 133.94 62.3867 133.94 62.3867 133.94C62.7892 134.543 62.7892 135.348 62.588 135.951C61.7829 137.962 60.5753 139.973 59.3677 141.783V141.985C59.1665 142.387 58.9652 142.588 58.5627 142.99C58.1601 143.392 57.7576 144.197 57.1538 145.001C56.9526 145.202 56.9526 145.403 56.7513 145.605C56.7513 145.605 56.7513 145.806 56.55 145.806C55.5437 147.817 56.3488 150.23 58.1601 151.236C58.5627 151.437 59.1665 151.638 59.569 151.638C61.1791 151.638 62.5879 150.632 63.393 149.225C63.393 149.225 63.393 149.023 63.5943 149.023C63.5943 148.822 63.7955 148.621 63.9968 148.42C64.1981 147.616 64.6006 147.012 64.8019 146.208L65.2044 145.001C65.8082 142.789 66.8145 140.778 67.8208 138.767C68.2233 138.163 68.8271 137.761 69.4309 137.56C69.6322 137.56 69.6322 137.56 69.6322 137.359L70.4372 135.75C76.0726 137.962 81.9093 138.968 87.9472 138.968C91.5699 138.968 95.1927 138.566 98.8154 137.56C101.029 137.158 103.243 136.353 105.256 135.75L106.061 137.158C106.262 137.158 106.262 137.158 106.262 137.359C106.866 137.56 107.47 137.962 107.872 138.566C108.879 140.577 109.885 142.588 110.489 144.8V145.001L110.891 146.208C111.093 147.012 111.294 147.817 111.696 148.42C111.898 148.621 111.898 148.822 112.099 149.023C112.099 149.023 112.099 149.225 112.3 149.225C113.105 150.632 114.514 151.638 116.124 151.638C116.728 151.638 117.13 151.437 117.734 151.236C118.539 150.833 119.344 150.029 119.546 149.023C119.747 148.018 119.747 147.012 119.344 146.007C119.344 145.806 119.143 145.806 119.143 145.806C119.143 145.605 118.942 145.403 118.741 145.202C118.338 144.398 117.935 143.795 117.332 143.191C117.13 142.789 116.929 142.588 116.527 142.186V141.783C115.118 139.973 114.111 137.962 113.306 135.951C113.105 135.348 113.105 134.543 113.508 133.94C113.508 133.739 113.709 133.739 113.709 133.739L113.105 132.13C123.37 125.896 131.219 116.242 134.842 104.779L136.452 104.98C136.653 104.98 136.653 104.779 136.653 104.779C137.056 104.377 137.659 104.176 138.263 104.176H138.464C140.678 104.578 142.892 105.181 144.905 105.986H145.106C145.509 106.187 145.911 106.388 146.314 106.388C147.119 106.79 147.723 107.192 148.528 107.393C148.729 107.393 148.93 107.595 149.333 107.595C149.534 107.595 149.534 107.595 149.735 107.796C150.138 107.997 150.339 107.997 150.741 107.997C152.553 107.997 154.163 106.79 154.767 105.181C154.565 102.969 152.955 101.36 151.144 100.958ZM92.9788 94.7234L87.5447 97.3378L82.1105 94.7234L80.7017 88.8912L84.5257 84.0645H90.5636L94.3876 88.8912L92.9788 94.7234ZM125.785 81.6512C126.791 85.8745 126.992 90.0978 126.59 94.3212L107.47 88.8912C105.658 88.489 104.652 86.6789 105.055 84.8689C105.256 84.2656 105.457 83.8634 105.86 83.4612L120.954 69.7856C123.168 73.4056 124.778 77.4278 125.785 81.6512ZM114.917 62.3445L98.4129 74.0089C97.004 74.8134 94.9914 74.6123 93.9851 73.2045C93.5826 72.8023 93.3813 72.4 93.3813 71.7967L92.1737 51.4845C101.029 52.49 108.879 56.3111 114.917 62.3445ZM78.4878 52.0878L82.5131 51.2834L81.5067 71.3945C81.5067 73.2045 79.8966 74.6123 78.0853 74.6123C77.4815 74.6123 77.0789 74.4112 76.4751 74.21L59.7703 62.3445C65.0031 57.3167 71.4436 53.6967 78.4878 52.0878ZM53.9336 69.7856L68.8271 83.0589C70.236 84.2656 70.4372 86.2767 69.2296 87.6845C68.8271 88.2878 68.4246 88.4889 67.6195 88.6901L48.097 94.3212C47.4932 85.8745 49.5058 77.2267 53.9336 69.7856ZM50.5121 103.773L70.4372 100.355C72.0473 100.355 73.6575 101.36 73.8587 102.969C74.06 103.572 74.06 104.377 73.6575 104.98L66.0094 123.482C58.9652 118.857 53.3298 111.818 50.5121 103.773ZM96.199 128.711C93.3813 129.315 90.5636 129.717 87.5447 129.717C83.3181 129.717 78.8903 128.912 74.865 127.706L84.727 109.807C85.7333 108.6 87.3434 108.198 88.7522 109.002C89.356 109.405 89.7585 109.807 90.3623 110.41L100.023 127.907C98.8154 128.108 97.6078 128.309 96.199 128.711ZM120.753 111.215C117.734 116.041 113.508 120.265 108.677 123.281L100.828 104.377C100.426 102.768 101.231 101.159 102.639 100.556C103.243 100.355 103.847 100.153 104.451 100.153L124.577 103.572C123.571 106.388 122.363 109.002 120.753 111.215Z" fill="white"/>
</svg>
