<svg width="719" height="469" viewBox="0 0 719 469" fill="none" xmlns="http://www.w3.org/2000/svg">
<path d="M256 212C256 194.333 249.75 179.25 237.25 166.75C224.75 154.25 209.667 148 192 148C174.333 148 159.25 154.25 146.75 166.75C134.25 179.25 128 194.333 128 212C128 229.667 134.25 244.75 146.75 257.25C159.25 269.75 174.333 276 192 276C209.667 276 224.75 269.75 237.25 257.25C249.75 244.75 256 229.667 256 212ZM384 184.75V240.25C384 242.25 383.333 244.167 382 246C380.667 247.833 379 248.917 377 249.25L330.75 256.25C327.583 265.25 324.333 272.833 321 279C326.833 287.333 335.75 298.833 347.75 313.5C349.417 315.5 350.25 317.583 350.25 319.75C350.25 321.917 349.5 323.833 348 325.5C343.5 331.667 335.25 340.667 323.25 352.5C311.25 364.333 303.417 370.25 299.75 370.25C297.75 370.25 295.583 369.5 293.25 368L258.75 341C251.417 344.833 243.833 348 236 350.5C233.333 373.167 230.917 388.667 228.75 397C227.583 401.667 224.583 404 219.75 404H164.25C161.917 404 159.875 403.292 158.125 401.875C156.375 400.458 155.417 398.667 155.25 396.5L148.25 350.5C140.083 347.833 132.583 344.75 125.75 341.25L90.5 368C88.8333 369.5 86.75 370.25 84.25 370.25C81.9167 370.25 79.8333 369.333 78 367.5C57 348.5 43.25 334.5 36.75 325.5C35.5833 323.833 35 321.917 35 319.75C35 317.75 35.6667 315.833 37 314C39.5 310.5 43.75 304.958 49.75 297.375C55.75 289.792 60.25 283.917 63.25 279.75C58.75 271.417 55.3333 263.167 53 255L7.25 248.25C5.08333 247.917 3.33333 246.875 2 245.125C0.666667 243.375 0 241.417 0 239.25V183.75C0 181.75 0.666667 179.833 2 178C3.33333 176.167 4.91667 175.083 6.75 174.75L53.25 167.75C55.5833 160.083 58.8333 152.417 63 144.75C56.3333 135.25 47.4167 123.75 36.25 110.25C34.5833 108.25 33.75 106.25 33.75 104.25C33.75 102.583 34.5 100.667 36 98.5C40.3333 92.5 48.5417 83.5417 60.625 71.625C72.7083 59.7083 80.5833 53.75 84.25 53.75C86.4167 53.75 88.5833 54.5833 90.75 56.25L125.25 83C132.583 79.1667 140.167 76 148 73.5C150.667 50.8333 153.083 35.3333 155.25 27C156.417 22.3333 159.417 20 164.25 20H219.75C222.083 20 224.125 20.7083 225.875 22.125C227.625 23.5417 228.583 25.3333 228.75 27.5L235.75 73.5C243.917 76.1667 251.417 79.25 258.25 82.75L293.75 56C295.25 54.5 297.25 53.75 299.75 53.75C301.917 53.75 304 54.5833 306 56.25C327.5 76.0833 341.25 90.25 347.25 98.75C348.417 100.083 349 101.917 349 104.25C349 106.25 348.333 108.167 347 110C344.5 113.5 340.25 119.042 334.25 126.625C328.25 134.208 323.75 140.083 320.75 144.25C325.083 152.583 328.5 160.75 331 168.75L376.75 175.75C378.917 176.083 380.667 177.125 382 178.875C383.333 180.625 384 182.583 384 184.75Z" fill="#6245F3"/>
<circle cx="192" cy="211.769" r="64.875" fill="white"/>
<circle cx="192" cy="211.769" r="45.375" fill="#6245F3"/>
<path d="M346.5 58.5L377.642 27.3579C381.393 23.6071 386.48 21.5 391.784 21.5H502.5" stroke="#6245F3" stroke-width="15" stroke-linecap="round"/>
<path d="M354 370L377.642 393.642C381.393 397.393 386.48 399.5 391.784 399.5H503" stroke="#6245F3" stroke-width="15" stroke-linecap="round"/>
<path d="M409.5 211.5H502.5" stroke="#6245F3" stroke-width="15" stroke-linecap="round"/>
<rect x="528" width="191" height="62" rx="5" fill="#6245F3"/>
<path d="M695 82.6934V62.5366C695 61.6305 694.391 60.8376 693.515 60.6041L658.628 51.3009C656.565 50.7507 655.191 53.3837 656.823 54.7615L691.71 84.2215C693.01 85.3194 695 84.3952 695 82.6934Z" fill="#6245F3" stroke="#6245F3" stroke-width="7"/>
<rect x="528" y="380" width="191" height="62" rx="5" fill="#6245F3"/>
<path d="M695 462.693V442.537C695 441.63 694.391 440.838 693.515 440.604L658.628 431.301C656.565 430.751 655.191 433.384 656.823 434.761L691.71 464.221C693.01 465.319 695 464.395 695 462.693Z" fill="#6245F3" stroke="#6245F3" stroke-width="7"/>
<rect width="191" height="62" rx="5" transform="matrix(-1 0 0 1 719 190)" fill="#6245F3"/>
<path d="M552 272.693V252.537C552 251.63 552.609 250.838 553.485 250.604L588.372 241.301C590.435 240.751 591.809 243.384 590.177 244.761L555.29 274.221C553.99 275.319 552 274.395 552 272.693Z" fill="#6245F3" stroke="#6245F3" stroke-width="7"/>
</svg>
