<svg width="100" height="100" viewBox="0 0 100 100" fill="none" xmlns="http://www.w3.org/2000/svg">
<rect width="100" height="100" rx="15" fill="#6245F3"/>
<path d="M36.22 55.2L34.32 63.4C34.2544 63.6997 34.2567 64.0104 34.3266 64.3091C34.3964 64.6079 34.5322 64.8873 34.7239 65.1269C34.9155 65.3665 35.1583 65.5603 35.4345 65.694C35.7106 65.8278 36.0132 65.8981 36.32 65.9C36.463 65.9144 36.607 65.9144 36.75 65.9L45 64L60.84 48.22L52 39.4L36.22 55.2Z" fill="white"/>
<path d="M65.82 40.32L59.92 34.42C59.5321 34.0341 59.0072 33.8174 58.46 33.8174C57.9128 33.8174 57.3879 34.0341 57 34.42L53.72 37.7L62.55 46.53L65.83 43.25C66.022 43.0571 66.174 42.8282 66.2774 42.5765C66.3808 42.3247 66.4335 42.0551 66.4326 41.7829C66.4317 41.5108 66.3771 41.2415 66.272 40.9905C66.1668 40.7394 66.0133 40.5116 65.82 40.32Z" fill="white"/>
</svg>
